<svg width="20" height="20" viewBox="0 0 20 20" fill="none" xmlns="http://www.w3.org/2000/svg">
<path d="M18.0917 14.9864L11.4311 3.33046C11.2859 3.0742 11.0753 2.86105 10.8208 2.71276C10.5663 2.56446 10.277 2.48633 9.98247 2.48633C9.68792 2.48633 9.39864 2.56446 9.14414 2.71276C8.88964 2.86105 8.67903 3.0742 8.5338 3.33046L1.87327 14.9864C1.72647 15.2406 1.6495 15.5292 1.65015 15.8227C1.6508 16.1163 1.72905 16.4045 1.87697 16.658C2.02489 16.9116 2.23723 17.1216 2.49245 17.2667C2.74767 17.4117 3.03671 17.4867 3.33026 17.4841H16.6513C16.9435 17.4838 17.2304 17.4066 17.4833 17.2604C17.7362 17.1141 17.9462 16.9039 18.0921 16.6508C18.238 16.3977 18.3148 16.1107 18.3148 15.8185C18.3147 15.5264 18.2377 15.2394 18.0917 14.9864Z" stroke="#1F2937" stroke-width="1.66513" stroke-linecap="round" stroke-linejoin="round"/>
<path d="M9.99081 7.49219V10.8225" stroke="#1F2937" stroke-width="1.66513" stroke-linecap="round" stroke-linejoin="round"/>
<path d="M9.99081 14.1543H9.99914" stroke="#1F2937" stroke-width="1.66513" stroke-linecap="round" stroke-linejoin="round"/>
</svg>
