<svg width="20" height="20" viewBox="0 0 20 20" fill="none" xmlns="http://www.w3.org/2000/svg">
<path d="M12.4885 1.66516H7.49309C7.03328 1.66516 6.66052 2.03791 6.66052 2.49773V4.16286C6.66052 4.62268 7.03328 4.99543 7.49309 4.99543H12.4885C12.9483 4.99543 13.3211 4.62268 13.3211 4.16286V2.49773C13.3211 2.03791 12.9483 1.66516 12.4885 1.66516Z" stroke="#3B82F6" stroke-width="1.66513" stroke-linecap="round" stroke-linejoin="round"/>
<path d="M13.3211 3.33026H14.9863C15.4279 3.33026 15.8514 3.50569 16.1637 3.81797C16.476 4.13024 16.6514 4.55377 16.6514 4.99539V16.6513C16.6514 17.0929 16.476 17.5165 16.1637 17.8288C15.8514 18.141 15.4279 18.3165 14.9863 18.3165H4.99546C4.55383 18.3165 4.1303 18.141 3.81803 17.8288C3.50576 17.5165 3.33032 17.0929 3.33032 16.6513V4.99539C3.33032 4.55377 3.50576 4.13024 3.81803 3.81797C4.1303 3.50569 4.55383 3.33026 4.99546 3.33026H6.66059" stroke="#3B82F6" stroke-width="1.66513" stroke-linecap="round" stroke-linejoin="round"/>
<path d="M9.99084 9.1582H13.3211" stroke="#3B82F6" stroke-width="1.66513" stroke-linecap="round" stroke-linejoin="round"/>
<path d="M9.99084 13.321H13.3211" stroke="#3B82F6" stroke-width="1.66513" stroke-linecap="round" stroke-linejoin="round"/>
<path d="M6.66052 9.1582H6.66885" stroke="#3B82F6" stroke-width="1.66513" stroke-linecap="round" stroke-linejoin="round"/>
<path d="M6.66052 13.321H6.66885" stroke="#3B82F6" stroke-width="1.66513" stroke-linecap="round" stroke-linejoin="round"/>
</svg>
