<svg width="16" height="16" viewBox="0 0 16 16" fill="none" xmlns="http://www.w3.org/2000/svg">
<g clip-path="url(#clip0_73_5937)">
<path d="M14.6568 11.2723V13.2709C14.6575 13.4565 14.6195 13.6401 14.5452 13.8101C14.4709 13.9801 14.3618 14.1328 14.2251 14.2582C14.0884 14.3836 13.927 14.4791 13.7512 14.5386C13.5755 14.598 13.3892 14.6201 13.2044 14.6034C11.1544 14.3806 9.18514 13.6801 7.45497 12.5581C5.84528 11.5352 4.48054 10.1705 3.45768 8.56079C2.33175 6.82277 1.63107 4.84396 1.41239 2.78469C1.39574 2.60046 1.41764 2.41478 1.47668 2.23948C1.53572 2.06417 1.63062 1.90308 1.75534 1.76646C1.88005 1.62984 2.03184 1.52069 2.20105 1.44594C2.37026 1.3712 2.55318 1.33251 2.73816 1.33234H4.73681C5.06013 1.32916 5.37358 1.44365 5.61872 1.65448C5.86387 1.8653 6.02399 2.15808 6.06924 2.47823C6.1536 3.11784 6.31005 3.74586 6.5356 4.3503C6.62523 4.58876 6.64463 4.84791 6.5915 5.09705C6.53836 5.34619 6.41492 5.57488 6.2358 5.75602L5.3897 6.60211C6.3381 8.27002 7.7191 9.65102 9.387 10.5994L10.2331 9.75332C10.4142 9.5742 10.6429 9.45076 10.8921 9.39762C11.1412 9.34449 11.4004 9.36389 11.6388 9.45352C12.2433 9.67907 12.8713 9.83551 13.5109 9.91987C13.8345 9.96553 14.1301 10.1285 14.3413 10.3779C14.5526 10.6273 14.6649 10.9456 14.6568 11.2723Z" stroke="#6B7280" stroke-width="1.33243" stroke-linecap="round" stroke-linejoin="round"/>
</g>
<defs>
<clipPath id="clip0_73_5937">
<rect width="15.9892" height="15.9892" fill="white"/>
</clipPath>
</defs>
</svg>
