<svg width="24" height="24" viewBox="0 0 24 24" fill="none" xmlns="http://www.w3.org/2000/svg">
<path d="M18.9948 16.9953H20.9943C21.5941 16.9953 21.994 16.5954 21.994 15.9956V12.9964C21.994 12.0967 21.2942 11.2969 20.4944 11.0969C18.6949 10.5971 15.9957 9.99723 15.9957 9.99723C15.9957 9.99723 14.696 8.59761 13.7963 7.69786C13.2964 7.29797 12.6966 6.99805 11.9967 6.99805H4.99864C4.3988 6.99805 3.89894 7.39794 3.59902 7.8978L2.1994 10.797C2.06701 11.1831 1.99945 11.5885 1.99945 11.9967V15.9956C1.99945 16.5954 2.39934 16.9953 2.99918 16.9953H4.99864" stroke="#3B82F6" stroke-width="1.99946" stroke-linecap="round" stroke-linejoin="round"/>
<path d="M6.99812 18.995C8.10239 18.995 8.99757 18.0998 8.99757 16.9956C8.99757 15.8913 8.10239 14.9961 6.99812 14.9961C5.89385 14.9961 4.99866 15.8913 4.99866 16.9956C4.99866 18.0998 5.89385 18.995 6.99812 18.995Z" stroke="#3B82F6" stroke-width="1.99946" stroke-linecap="round" stroke-linejoin="round"/>
<path d="M8.99756 16.9956H14.9959" stroke="#3B82F6" stroke-width="1.99946" stroke-linecap="round" stroke-linejoin="round"/>
<path d="M16.9954 18.995C18.0996 18.995 18.9948 18.0998 18.9948 16.9956C18.9948 15.8913 18.0996 14.9961 16.9954 14.9961C15.8911 14.9961 14.9959 15.8913 14.9959 16.9956C14.9959 18.0998 15.8911 18.995 16.9954 18.995Z" stroke="#3B82F6" stroke-width="1.99946" stroke-linecap="round" stroke-linejoin="round"/>
</svg>
