<svg width="16" height="16" viewBox="0 0 16 16" fill="none" xmlns="http://www.w3.org/2000/svg">
<g clip-path="url(#clip0_73_6234)">
<path d="M14.4769 11.9918L9.14714 2.66473C9.03093 2.45967 8.86241 2.28911 8.65876 2.17045C8.45511 2.05178 8.22363 1.98926 7.98793 1.98926C7.75223 1.98926 7.52075 2.05178 7.3171 2.17045C7.11345 2.28911 6.94492 2.45967 6.82871 2.66473L1.49898 11.9918C1.38151 12.1952 1.31992 12.4261 1.32044 12.661C1.32096 12.8959 1.38357 13.1265 1.50194 13.3294C1.62031 13.5323 1.79021 13.7003 1.99444 13.8164C2.19867 13.9325 2.42995 13.9925 2.66486 13.9904H13.3243C13.5581 13.9902 13.7877 13.9284 13.9901 13.8114C14.1924 13.6943 14.3604 13.5261 14.4772 13.3236C14.594 13.1211 14.6555 12.8914 14.6554 12.6576C14.6553 12.4239 14.5938 12.1942 14.4769 11.9918Z" stroke="#EF4444" stroke-width="1.33243" stroke-linecap="round" stroke-linejoin="round"/>
<path d="M7.99463 5.99609V8.66096" stroke="#EF4444" stroke-width="1.33243" stroke-linecap="round" stroke-linejoin="round"/>
<path d="M7.99463 11.3257H8.00129" stroke="#EF4444" stroke-width="1.33243" stroke-linecap="round" stroke-linejoin="round"/>
</g>
<defs>
<clipPath id="clip0_73_6234">
<rect width="15.9892" height="15.9892" fill="white"/>
</clipPath>
</defs>
</svg>
