<svg width="16" height="16" viewBox="0 0 16 16" fill="none" xmlns="http://www.w3.org/2000/svg">
<g clip-path="url(#clip0_72_2539)">
<path d="M7.9946 1.33252V14.6569" stroke="#3B82F6" stroke-width="1.33243" stroke-linecap="round" stroke-linejoin="round"/>
<path d="M11.3257 3.33105H6.32906C5.71064 3.33105 5.11755 3.57672 4.68026 4.01401C4.24297 4.4513 3.9973 5.04439 3.9973 5.66281C3.9973 6.28123 4.24297 6.87433 4.68026 7.31162C5.11755 7.7489 5.71064 7.99457 6.32906 7.99457H9.66014C10.2786 7.99457 10.8717 8.24024 11.3089 8.67753C11.7462 9.11482 11.9919 9.70791 11.9919 10.3263C11.9919 10.9448 11.7462 11.5378 11.3089 11.9751C10.8717 12.4124 10.2786 12.6581 9.66014 12.6581H3.9973" stroke="#3B82F6" stroke-width="1.33243" stroke-linecap="round" stroke-linejoin="round"/>
</g>
<defs>
<clipPath id="clip0_72_2539">
<rect width="15.9892" height="15.9892" fill="white"/>
</clipPath>
</defs>
</svg>
