<svg width="20" height="20" viewBox="0 0 20 20" fill="none" xmlns="http://www.w3.org/2000/svg">
<path d="M8.32564 16.6513C8.32557 16.8061 8.36861 16.9577 8.44993 17.0894C8.53126 17.221 8.64765 17.3273 8.78605 17.3965L10.4512 18.2291C10.5781 18.2925 10.7192 18.3224 10.861 18.316C11.0028 18.3096 11.1406 18.267 11.2613 18.1924C11.382 18.1177 11.4816 18.0134 11.5507 17.8894C11.6198 17.7654 11.656 17.6258 11.6559 17.4839V11.6559C11.6561 11.2433 11.8095 10.8454 12.0863 10.5395L18.1 3.8881C18.2078 3.76867 18.2786 3.62058 18.304 3.46173C18.3294 3.30287 18.3083 3.14006 18.2431 2.99298C18.1779 2.84591 18.0715 2.72086 17.9368 2.63296C17.8021 2.54507 17.6447 2.49809 17.4839 2.49771H2.49767C2.33666 2.49777 2.17912 2.54451 2.04413 2.63228C1.90914 2.72005 1.8025 2.84508 1.73713 2.99222C1.67175 3.13937 1.65044 3.30231 1.67578 3.46132C1.70112 3.62032 1.77203 3.76857 1.87991 3.8881L7.8952 10.5395C8.17206 10.8454 8.32545 11.2433 8.32564 11.6559V16.6513Z" stroke="#6B7280" stroke-width="1.66513" stroke-linecap="round" stroke-linejoin="round"/>
</svg>
