<svg width="20" height="20" viewBox="0 0 20 20" fill="none" xmlns="http://www.w3.org/2000/svg">
<path d="M12.655 2.49805C13.0942 2.5043 13.5132 2.68385 13.8206 2.99759L16.9843 6.16134C17.2981 6.46877 17.4776 6.88772 17.4839 7.32693V15.8191C17.4839 16.2607 17.3084 16.6843 16.9962 16.9965C16.6839 17.3088 16.2604 17.4842 15.8187 17.4842H4.16281C3.72119 17.4842 3.29766 17.3088 2.98539 16.9965C2.67311 16.6843 2.49768 16.2607 2.49768 15.8191V4.16318C2.49768 3.72156 2.67311 3.29803 2.98539 2.98575C3.29766 2.67348 3.72119 2.49805 4.16281 2.49805H12.655Z" stroke="white" stroke-width="1.66513" stroke-linecap="round" stroke-linejoin="round"/>
<path d="M14.1536 17.4838V11.6558C14.1536 11.435 14.0659 11.2232 13.9098 11.0671C13.7536 10.911 13.5419 10.8232 13.321 10.8232H6.66051C6.4397 10.8232 6.22793 10.911 6.0718 11.0671C5.91566 11.2232 5.82794 11.435 5.82794 11.6558V17.4838" stroke="white" stroke-width="1.66513" stroke-linecap="round" stroke-linejoin="round"/>
<path d="M5.82794 2.49805V5.82831C5.82794 6.04912 5.91566 6.26089 6.0718 6.41703C6.22793 6.57316 6.4397 6.66088 6.66051 6.66088H12.4885" stroke="white" stroke-width="1.66513" stroke-linecap="round" stroke-linejoin="round"/>
</svg>
