<svg width="16" height="16" viewBox="0 0 16 16" fill="none" xmlns="http://www.w3.org/2000/svg">
<g clip-path="url(#clip0_73_11444)">
<path d="M14.1065 4.53812C14.4587 4.18597 14.6567 3.70833 14.6567 3.21025C14.6568 2.71218 14.459 2.23448 14.1068 1.88225C13.7547 1.53001 13.2771 1.33209 12.779 1.33203C12.2809 1.33197 11.8032 1.52977 11.451 1.88191L2.55965 10.7752C2.40496 10.9295 2.29057 11.1194 2.22654 11.3282L1.34647 14.2276C1.32925 14.2852 1.32795 14.3464 1.3427 14.4047C1.35746 14.463 1.38772 14.5162 1.43027 14.5587C1.47283 14.6012 1.52609 14.6313 1.58441 14.646C1.64273 14.6607 1.70393 14.6593 1.76152 14.642L4.66156 13.7626C4.8702 13.6991 5.06007 13.5854 5.21452 13.4314L14.1065 4.53812Z" stroke="#2563EB" stroke-width="1.33243" stroke-linecap="round" stroke-linejoin="round"/>
<path d="M9.99329 3.33203L12.6582 5.9969" stroke="#2563EB" stroke-width="1.33243" stroke-linecap="round" stroke-linejoin="round"/>
</g>
<defs>
<clipPath id="clip0_73_11444">
<rect width="15.9892" height="15.9892" fill="white"/>
</clipPath>
</defs>
</svg>
