<svg width="20" height="20" viewBox="0 0 20 20" fill="none" xmlns="http://www.w3.org/2000/svg">
<path d="M12.2387 5.24518C12.0862 5.40081 12.0007 5.61005 12.0007 5.82798C12.0007 6.0459 12.0862 6.25514 12.2387 6.41077L13.5708 7.74288C13.7265 7.89543 13.9357 7.98087 14.1536 7.98087C14.3716 7.98087 14.5808 7.89543 14.7364 7.74288L17.8752 4.6041C18.2938 5.52924 18.4206 6.56 18.2386 7.559C18.0566 8.55801 17.5744 9.47782 16.8564 10.1959C16.1383 10.9139 15.2185 11.396 14.2195 11.5781C13.2205 11.7601 12.1898 11.6333 11.2646 11.2147L5.51159 16.9677C5.18038 17.2989 4.73115 17.485 4.26274 17.485C3.79433 17.485 3.34511 17.2989 3.01389 16.9677C2.68268 16.6365 2.4966 16.1873 2.4966 15.7189C2.4966 15.2505 2.68268 14.8012 3.01389 14.47L8.76693 8.71698C8.34828 7.79184 8.22153 6.76109 8.40355 5.76208C8.58557 4.76308 9.06772 3.84327 9.78576 3.12523C10.5038 2.4072 11.4236 1.92504 12.4226 1.74302C13.4216 1.561 14.4524 1.68776 15.3775 2.1064L12.2471 5.23685L12.2387 5.24518Z" stroke="#2563EB" stroke-width="1.66513" stroke-linecap="round" stroke-linejoin="round"/>
</svg>
