<svg width="20" height="20" viewBox="0 0 20 20" fill="none" xmlns="http://www.w3.org/2000/svg">
<path d="M12.4885 1.66504H4.9954C4.55378 1.66504 4.13024 1.84047 3.81797 2.15275C3.5057 2.46502 3.33027 2.88855 3.33027 3.33017V16.6512C3.33027 17.0929 3.5057 17.5164 3.81797 17.8287C4.13024 18.1409 4.55378 18.3164 4.9954 18.3164H14.9862C15.4278 18.3164 15.8514 18.1409 16.1636 17.8287C16.4759 17.5164 16.6513 17.0929 16.6513 16.6512V5.82787L12.4885 1.66504Z" stroke="#3B82F6" stroke-width="1.66513" stroke-linecap="round" stroke-linejoin="round"/>
<path d="M11.6559 1.66504V4.99531C11.6559 5.43693 11.8314 5.86046 12.1436 6.17273C12.4559 6.48501 12.8794 6.66044 13.3211 6.66044H16.6513" stroke="#3B82F6" stroke-width="1.66513" stroke-linecap="round" stroke-linejoin="round"/>
<path d="M8.32567 7.49316H6.66053" stroke="#3B82F6" stroke-width="1.66513" stroke-linecap="round" stroke-linejoin="round"/>
<path d="M13.3211 10.8235H6.66053" stroke="#3B82F6" stroke-width="1.66513" stroke-linecap="round" stroke-linejoin="round"/>
<path d="M13.3211 14.1536H6.66053" stroke="#3B82F6" stroke-width="1.66513" stroke-linecap="round" stroke-linejoin="round"/>
</svg>
