<svg width="16" height="16" viewBox="0 0 16 16" fill="none" xmlns="http://www.w3.org/2000/svg">
<g clip-path="url(#clip0_73_5917)">
<path d="M7.99461 1.99854H3.33109C2.97771 1.99854 2.6388 2.13892 2.38892 2.3888C2.13904 2.63868 1.99866 2.97759 1.99866 3.33097V12.658C1.99866 13.0114 2.13904 13.3503 2.38892 13.6002C2.6388 13.8501 2.97771 13.9904 3.33109 13.9904H12.6581C13.0115 13.9904 13.3504 13.8501 13.6003 13.6002C13.8502 13.3503 13.9906 13.0114 13.9906 12.658V7.99449" stroke="#6B7280" stroke-width="1.33243" stroke-linecap="round" stroke-linejoin="round"/>
<path d="M12.2418 1.74889C12.5068 1.48386 12.8663 1.33496 13.2411 1.33496C13.6159 1.33496 13.9754 1.48386 14.2404 1.74889C14.5054 2.01393 14.6543 2.3734 14.6543 2.74822C14.6543 3.12304 14.5054 3.48251 14.2404 3.74754L8.23579 9.75282C8.0776 9.91088 7.88217 10.0266 7.66751 10.0893L5.75347 10.6489C5.69614 10.6656 5.63537 10.6666 5.57752 10.6518C5.51968 10.637 5.46688 10.6069 5.42465 10.5646C5.38243 10.5224 5.35233 10.4696 5.33751 10.4118C5.32269 10.3539 5.32369 10.2932 5.34041 10.2358L5.90003 8.32179C5.96301 8.1073 6.07894 7.9121 6.23714 7.75417L12.2418 1.74889Z" stroke="#6B7280" stroke-width="1.33243" stroke-linecap="round" stroke-linejoin="round"/>
</g>
<defs>
<clipPath id="clip0_73_5917">
<rect width="15.9892" height="15.9892" fill="white"/>
</clipPath>
</defs>
</svg>
