<svg width="28" height="28" viewBox="0 0 28 28" fill="none" xmlns="http://www.w3.org/2000/svg">
<path d="M17.4912 2.33228H10.4947C9.8507 2.33228 9.32863 2.85435 9.32863 3.49835V5.83051C9.32863 6.47452 9.8507 6.99659 10.4947 6.99659H17.4912C18.1352 6.99659 18.6573 6.47452 18.6573 5.83051V3.49835C18.6573 2.85435 18.1352 2.33228 17.4912 2.33228Z" stroke="white" stroke-width="2.33216" stroke-linecap="round" stroke-linejoin="round"/>
<path d="M18.6573 4.66431H20.9894C21.608 4.66431 22.2011 4.91002 22.6385 5.34738C23.0759 5.78474 23.3216 6.37794 23.3216 6.99646V23.3216C23.3216 23.9401 23.0759 24.5333 22.6385 24.9707C22.2011 25.408 21.608 25.6537 20.9894 25.6537H6.99647C6.37795 25.6537 5.78475 25.408 5.34739 24.9707C4.91002 24.5333 4.66432 23.9401 4.66432 23.3216V6.99646C4.66432 6.37794 4.91002 5.78474 5.34739 5.34738C5.78475 4.91002 6.37795 4.66431 6.99647 4.66431H9.32863" stroke="white" stroke-width="2.33216" stroke-linecap="round" stroke-linejoin="round"/>
<path d="M10.4947 16.3251L12.8269 18.6572L17.4912 13.9929" stroke="white" stroke-width="2.33216" stroke-linecap="round" stroke-linejoin="round"/>
</svg>
