<svg width="16" height="16" viewBox="0 0 16 16" fill="none" xmlns="http://www.w3.org/2000/svg">
<path d="M9.79339 4.19528C9.67132 4.31982 9.60294 4.48725 9.60294 4.66163C9.60294 4.83602 9.67132 5.00345 9.79339 5.12799L10.8593 6.19393C10.9839 6.316 11.1513 6.38438 11.3257 6.38438C11.5001 6.38438 11.6675 6.316 11.792 6.19393L14.3037 3.6823C14.6387 4.42259 14.7401 5.2474 14.5944 6.0468C14.4488 6.8462 14.063 7.58223 13.4884 8.15679C12.9138 8.73136 12.1778 9.11718 11.3784 9.26283C10.579 9.40848 9.75421 9.30705 9.01391 8.97206L4.41036 13.5756C4.14532 13.8407 3.78585 13.9895 3.41103 13.9895C3.03621 13.9895 2.67674 13.8407 2.41171 13.5756C2.14667 13.3106 1.99777 12.9511 1.99777 12.5763C1.99777 12.2015 2.14667 11.842 2.41171 11.577L7.01526 6.97341C6.68027 6.23311 6.57884 5.40831 6.72449 4.60891C6.87014 3.80951 7.25596 3.07348 7.83053 2.49891C8.40509 1.92434 9.14112 1.53852 9.94052 1.39287C10.7399 1.24722 11.5647 1.34865 12.305 1.68365L9.80005 4.18862L9.79339 4.19528Z" stroke="#6B7280" stroke-width="1.33243" stroke-linecap="round" stroke-linejoin="round"/>
</svg>
