<svg width="32" height="32" viewBox="0 0 32 32" fill="none" xmlns="http://www.w3.org/2000/svg">
<path d="M21.3319 27.9981V25.3316C21.3319 23.9172 20.77 22.5607 19.7699 21.5606C18.7698 20.5605 17.4133 19.9986 15.9989 19.9986H7.99947C6.58508 19.9986 5.22862 20.5605 4.22849 21.5606C3.22837 22.5607 2.6665 23.9172 2.6665 25.3316V27.9981" stroke="#2563EB" stroke-width="2.66648" stroke-linecap="round" stroke-linejoin="round"/>
<path d="M11.9992 14.6657C14.9445 14.6657 17.3321 12.278 17.3321 9.33269C17.3321 6.38738 14.9445 3.99973 11.9992 3.99973C9.05385 3.99973 6.6662 6.38738 6.6662 9.33269C6.6662 12.278 9.05385 14.6657 11.9992 14.6657Z" stroke="#2563EB" stroke-width="2.66648" stroke-linecap="round" stroke-linejoin="round"/>
<path d="M29.3313 27.9981V25.3316C29.3304 24.15 28.9372 23.0021 28.2132 22.0682C27.4893 21.1343 26.4757 20.4673 25.3316 20.1719" stroke="#2563EB" stroke-width="2.66648" stroke-linecap="round" stroke-linejoin="round"/>
<path d="M21.3318 4.17303C22.479 4.46675 23.4957 5.1339 24.2218 6.06932C24.9479 7.00473 25.342 8.1552 25.342 9.33935C25.342 10.5235 24.9479 11.674 24.2218 12.6094C23.4957 13.5448 22.479 14.2119 21.3318 14.5057" stroke="#2563EB" stroke-width="2.66648" stroke-linecap="round" stroke-linejoin="round"/>
</svg>
