<svg width="16" height="16" viewBox="0 0 16 16" fill="none" xmlns="http://www.w3.org/2000/svg">
<g clip-path="url(#clip0_72_2546)">
<path d="M9.66014 2.66504H6.32906L4.66352 4.66369H2.66487C2.31148 4.66369 1.97257 4.80407 1.72269 5.05395C1.47281 5.30383 1.33243 5.64274 1.33243 5.99612V11.9921C1.33243 12.3455 1.47281 12.6844 1.72269 12.9342C1.97257 13.1841 2.31148 13.3245 2.66487 13.3245H13.3243C13.6777 13.3245 14.0166 13.1841 14.2665 12.9342C14.5164 12.6844 14.6568 12.3455 14.6568 11.9921V5.99612C14.6568 5.64274 14.5164 5.30383 14.2665 5.05395C14.0166 4.80407 13.6777 4.66369 13.3243 4.66369H11.3257L9.66014 2.66504Z" stroke="#1F2937" stroke-width="1.33243" stroke-linecap="round" stroke-linejoin="round"/>
<path d="M7.9946 10.6594C9.09842 10.6594 9.99325 9.76458 9.99325 8.66076C9.99325 7.55694 9.09842 6.66211 7.9946 6.66211C6.89078 6.66211 5.99595 7.55694 5.99595 8.66076C5.99595 9.76458 6.89078 10.6594 7.9946 10.6594Z" stroke="#1F2937" stroke-width="1.33243" stroke-linecap="round" stroke-linejoin="round"/>
</g>
<defs>
<clipPath id="clip0_72_2546">
<rect width="15.9892" height="15.9892" fill="white"/>
</clipPath>
</defs>
</svg>
