<svg width="20" height="20" viewBox="0 0 20 20" fill="none" xmlns="http://www.w3.org/2000/svg">
<path d="M13.3211 17.4839V15.8188C13.3211 14.9355 12.9702 14.0885 12.3457 13.4639C11.7211 12.8394 10.8741 12.4885 9.99083 12.4885H4.99543C4.11219 12.4885 3.26512 12.8394 2.64057 13.4639C2.01603 14.0885 1.66516 14.9355 1.66516 15.8188V17.4839" stroke="#1F2937" stroke-width="1.66513" stroke-linecap="round" stroke-linejoin="round"/>
<path d="M7.49311 9.15823C9.33236 9.15823 10.8234 7.66722 10.8234 5.82797C10.8234 3.98871 9.33236 2.4977 7.49311 2.4977C5.65385 2.4977 4.16284 3.98871 4.16284 5.82797C4.16284 7.66722 5.65385 9.15823 7.49311 9.15823Z" stroke="#1F2937" stroke-width="1.66513" stroke-linecap="round" stroke-linejoin="round"/>
<path d="M18.3164 17.4839V15.8188C18.3159 15.0809 18.0703 14.3641 17.6182 13.7809C17.1661 13.1977 16.5332 12.7812 15.8187 12.5967" stroke="#1F2937" stroke-width="1.66513" stroke-linecap="round" stroke-linejoin="round"/>
<path d="M13.321 2.60593C14.0374 2.78935 14.6723 3.20597 15.1257 3.7901C15.5792 4.37424 15.8253 5.09267 15.8253 5.83213C15.8253 6.57159 15.5792 7.29002 15.1257 7.87416C14.6723 8.45829 14.0374 8.87491 13.321 9.05833" stroke="#1F2937" stroke-width="1.66513" stroke-linecap="round" stroke-linejoin="round"/>
</svg>
