<svg width="20" height="20" viewBox="0 0 20 20" fill="none" xmlns="http://www.w3.org/2000/svg">
<path d="M2.49771 9.98919C2.49771 11.4712 2.93717 12.9199 3.76053 14.1521C4.58388 15.3844 5.75414 16.3448 7.12333 16.9119C8.49251 17.4791 9.99912 17.6274 11.4526 17.3383C12.9062 17.0492 14.2413 16.3355 15.2892 15.2876C16.3372 14.2397 17.0508 12.9045 17.3399 11.451C17.6291 9.99751 17.4807 8.49089 16.9135 7.12171C16.3464 5.75252 15.386 4.58226 14.1538 3.75891C12.9215 2.93556 11.4728 2.49609 9.99081 2.49609C7.89603 2.50397 5.8854 3.32135 4.37931 4.77733L2.49771 6.65893" stroke="#2563EB" stroke-width="1.66513" stroke-linecap="round" stroke-linejoin="round"/>
<path d="M2.49771 2.49609V6.65893H6.66054" stroke="#2563EB" stroke-width="1.66513" stroke-linecap="round" stroke-linejoin="round"/>
<path d="M9.99081 5.82812V9.99096L13.3211 11.6561" stroke="#2563EB" stroke-width="1.66513" stroke-linecap="round" stroke-linejoin="round"/>
</svg>
