<svg width="12" height="12" viewBox="0 0 12 12" fill="none" xmlns="http://www.w3.org/2000/svg">
<path d="M9.49739 1.49951H2.49931C1.94718 1.49951 1.49959 1.9471 1.49959 2.49924V9.49731C1.49959 10.0494 1.94718 10.497 2.49931 10.497H9.49739C10.0495 10.497 10.4971 10.0494 10.4971 9.49731V2.49924C10.4971 1.9471 10.0495 1.49951 9.49739 1.49951Z" stroke="#6B7280" stroke-width="0.999725" stroke-linecap="round" stroke-linejoin="round"/>
<path d="M4.49876 5.49847C5.0509 5.49847 5.49849 5.05088 5.49849 4.49875C5.49849 3.94662 5.0509 3.49902 4.49876 3.49902C3.94663 3.49902 3.49904 3.94662 3.49904 4.49875C3.49904 5.05088 3.94663 5.49847 4.49876 5.49847Z" stroke="#6B7280" stroke-width="0.999725" stroke-linecap="round" stroke-linejoin="round"/>
<path d="M10.4971 7.49788L8.95454 5.9553C8.76706 5.76788 8.51282 5.6626 8.24773 5.6626C7.98264 5.6626 7.7284 5.76788 7.54093 5.9553L2.99918 10.4971" stroke="#6B7280" stroke-width="0.999725" stroke-linecap="round" stroke-linejoin="round"/>
</svg>
