<svg width="16" height="16" viewBox="0 0 16 16" fill="none" xmlns="http://www.w3.org/2000/svg">
<g clip-path="url(#clip0_73_11505)">
<path d="M7.9946 1.33203V14.6564" stroke="#1F2937" stroke-width="1.33243" stroke-linecap="round" stroke-linejoin="round"/>
<path d="M11.3257 3.33203H6.32907C5.71065 3.33203 5.11756 3.5777 4.68027 4.01499C4.24298 4.45228 3.99731 5.04537 3.99731 5.66379C3.99731 6.28221 4.24298 6.8753 4.68027 7.31259C5.11756 7.74988 5.71065 7.99555 6.32907 7.99555H9.66016C10.2786 7.99555 10.8717 8.24121 11.309 8.6785C11.7462 9.11579 11.9919 9.70889 11.9919 10.3273C11.9919 10.9457 11.7462 11.5388 11.309 11.9761C10.8717 12.4134 10.2786 12.6591 9.66016 12.6591H3.99731" stroke="#1F2937" stroke-width="1.33243" stroke-linecap="round" stroke-linejoin="round"/>
</g>
<defs>
<clipPath id="clip0_73_11505">
<rect width="15.9892" height="15.9892" fill="white"/>
</clipPath>
</defs>
</svg>
