<svg width="32" height="32" viewBox="0 0 32 32" fill="none" xmlns="http://www.w3.org/2000/svg">
<path d="M19.9986 2.6665H11.9991C11.2628 2.6665 10.6659 3.26342 10.6659 3.99975V6.66623C10.6659 7.40256 11.2628 7.99947 11.9991 7.99947H19.9986C20.7349 7.99947 21.3318 7.40256 21.3318 6.66623V3.99975C21.3318 3.26342 20.7349 2.6665 19.9986 2.6665Z" stroke="#F59E0B" stroke-width="2.66648" stroke-linecap="round" stroke-linejoin="round"/>
<path d="M21.3319 5.33301H23.9984C24.7056 5.33301 25.3838 5.61394 25.8839 6.114C26.3839 6.61407 26.6649 7.2923 26.6649 7.99949V26.6649C26.6649 27.3721 26.3839 28.0503 25.8839 28.5504C25.3838 29.0504 24.7056 29.3314 23.9984 29.3314H7.99949C7.2923 29.3314 6.61407 29.0504 6.114 28.5504C5.61394 28.0503 5.33301 27.3721 5.33301 26.6649V7.99949C5.33301 7.2923 5.61394 6.61407 6.114 6.114C6.61407 5.61394 7.2923 5.33301 7.99949 5.33301H10.666" stroke="#F59E0B" stroke-width="2.66648" stroke-linecap="round" stroke-linejoin="round"/>
<path d="M15.9989 14.6656H21.3319" stroke="#F59E0B" stroke-width="2.66648" stroke-linecap="round" stroke-linejoin="round"/>
<path d="M15.9989 21.3319H21.3319" stroke="#F59E0B" stroke-width="2.66648" stroke-linecap="round" stroke-linejoin="round"/>
<path d="M10.6659 14.6656H10.6792" stroke="#F59E0B" stroke-width="2.66648" stroke-linecap="round" stroke-linejoin="round"/>
<path d="M10.6659 21.3319H10.6792" stroke="#F59E0B" stroke-width="2.66648" stroke-linecap="round" stroke-linejoin="round"/>
</svg>
