<svg width="20" height="20" viewBox="0 0 20 20" fill="none" xmlns="http://www.w3.org/2000/svg">
<g clip-path="url(#clip0_830_83)">
<path d="M18.096 8.30047C18.4751 10.1609 18.2049 12.095 17.3306 13.7803C16.4562 15.4656 15.0305 16.8003 13.2913 17.5616C11.552 18.323 9.60426 18.4651 7.77289 17.9643C5.94152 17.4634 4.33721 16.3498 3.2275 14.8093C2.11779 13.2687 1.56976 11.3943 1.6748 9.49856C1.77983 7.60284 2.53159 5.80043 3.8047 4.3919C5.07781 2.98337 6.79532 2.05386 8.67081 1.75838C10.5463 1.4629 12.4664 1.81931 14.1109 2.76817" stroke="white" stroke-width="1.6601" stroke-linecap="round" stroke-linejoin="round"/>
<path d="M7.47052 9.13068L9.96068 11.6208L18.2612 3.32031" stroke="white" stroke-width="1.6601" stroke-linecap="round" stroke-linejoin="round"/>
</g>
<defs>
<clipPath id="clip0_830_83">
<rect width="19.9213" height="19.9213" fill="white"/>
</clipPath>
</defs>
</svg>
